<mxfile host="app.diagrams.net" modified="2021-08-30T03:20:33.239Z" agent="5.0 (Windows NT 10.0; Win64; x64) AppleWebKit/537.36 (KHTML, like Gecko) Chrome/84.0.4147.89 Safari/537.36" etag="FY1GmlzjfZo0wIP2AhcK" version="15.0.3" type="github">
  <diagram id="fMBMRcdFhfrHDBfZhCHv" name="BOD">
    <mxGraphModel dx="1422" dy="796" grid="1" gridSize="10" guides="1" tooltips="1" connect="1" arrows="1" fold="1" page="1" pageScale="1" pageWidth="850" pageHeight="1100" math="0" shadow="0">
      <root>
        <mxCell id="0" />
        <mxCell id="1" parent="0" />
        <mxCell id="AnU8_0M6KKUPWGShQXzV-3" style="edgeStyle=orthogonalEdgeStyle;rounded=0;orthogonalLoop=1;jettySize=auto;html=1;entryX=0;entryY=0.5;entryDx=0;entryDy=0;" parent="1" source="AnU8_0M6KKUPWGShQXzV-1" target="AnU8_0M6KKUPWGShQXzV-2" edge="1">
          <mxGeometry relative="1" as="geometry" />
        </mxCell>
        <mxCell id="AnU8_0M6KKUPWGShQXzV-27" style="edgeStyle=orthogonalEdgeStyle;rounded=0;orthogonalLoop=1;jettySize=auto;html=1;entryX=0;entryY=0.5;entryDx=0;entryDy=0;" parent="1" source="AnU8_0M6KKUPWGShQXzV-1" target="AnU8_0M6KKUPWGShQXzV-26" edge="1">
          <mxGeometry relative="1" as="geometry" />
        </mxCell>
        <mxCell id="AnU8_0M6KKUPWGShQXzV-1" value="Modual : CBOMXSchedule" style="rounded=1;whiteSpace=wrap;html=1;" parent="1" vertex="1">
          <mxGeometry x="60" y="110" width="190" height="60" as="geometry" />
        </mxCell>
        <mxCell id="AnU8_0M6KKUPWGShQXzV-32" style="edgeStyle=orthogonalEdgeStyle;rounded=0;orthogonalLoop=1;jettySize=auto;html=1;entryX=0;entryY=0.5;entryDx=0;entryDy=0;" parent="1" source="AnU8_0M6KKUPWGShQXzV-2" target="AnU8_0M6KKUPWGShQXzV-30" edge="1">
          <mxGeometry relative="1" as="geometry" />
        </mxCell>
        <mxCell id="AnU8_0M6KKUPWGShQXzV-33" style="edgeStyle=orthogonalEdgeStyle;rounded=0;orthogonalLoop=1;jettySize=auto;html=1;entryX=0;entryY=0.5;entryDx=0;entryDy=0;" parent="1" source="AnU8_0M6KKUPWGShQXzV-2" target="AnU8_0M6KKUPWGShQXzV-31" edge="1">
          <mxGeometry relative="1" as="geometry" />
        </mxCell>
        <mxCell id="AnU8_0M6KKUPWGShQXzV-2" value="JOB (Folder)" style="rounded=0;whiteSpace=wrap;html=1;" parent="1" vertex="1">
          <mxGeometry x="180" y="220" width="110" height="50" as="geometry" />
        </mxCell>
        <mxCell id="AnU8_0M6KKUPWGShQXzV-8" value="Schedule on Mendix" style="whiteSpace=wrap;html=1;fillColor=#ffe6cc;strokeColor=#d79b00;" parent="1" vertex="1">
          <mxGeometry x="300" y="210" width="190" height="60" as="geometry" />
        </mxCell>
        <mxCell id="AnU8_0M6KKUPWGShQXzV-9" value="" style="shape=card;whiteSpace=wrap;html=1;" parent="1" vertex="1">
          <mxGeometry x="460" y="432.5" width="50" height="60" as="geometry" />
        </mxCell>
        <mxCell id="AnU8_0M6KKUPWGShQXzV-10" value="" style="shape=card;whiteSpace=wrap;html=1;" parent="1" vertex="1">
          <mxGeometry x="470" y="432.5" width="50" height="60" as="geometry" />
        </mxCell>
        <mxCell id="AnU8_0M6KKUPWGShQXzV-11" value="" style="shape=card;whiteSpace=wrap;html=1;" parent="1" vertex="1">
          <mxGeometry x="480" y="432.5" width="50" height="60" as="geometry" />
        </mxCell>
        <mxCell id="AnU8_0M6KKUPWGShQXzV-12" value="" style="shape=card;whiteSpace=wrap;html=1;" parent="1" vertex="1">
          <mxGeometry x="490" y="432.5" width="50" height="60" as="geometry" />
        </mxCell>
        <mxCell id="AnU8_0M6KKUPWGShQXzV-16" style="edgeStyle=orthogonalEdgeStyle;rounded=0;orthogonalLoop=1;jettySize=auto;html=1;entryX=0;entryY=0.5;entryDx=0;entryDy=0;" parent="1" source="AnU8_0M6KKUPWGShQXzV-13" target="AnU8_0M6KKUPWGShQXzV-15" edge="1">
          <mxGeometry relative="1" as="geometry" />
        </mxCell>
        <mxCell id="AnU8_0M6KKUPWGShQXzV-13" value="Schedule file." style="shape=card;whiteSpace=wrap;html=1;" parent="1" vertex="1">
          <mxGeometry x="500" y="432.5" width="90" height="60" as="geometry" />
        </mxCell>
        <mxCell id="AnU8_0M6KKUPWGShQXzV-14" value="Schedule on Rundeck" style="whiteSpace=wrap;html=1;fillColor=#ffe6cc;strokeColor=#d79b00;" parent="1" vertex="1">
          <mxGeometry x="310" y="530" width="190" height="60" as="geometry" />
        </mxCell>
        <mxCell id="AnU8_0M6KKUPWGShQXzV-15" value="Micro flow" style="ellipse;whiteSpace=wrap;html=1;" parent="1" vertex="1">
          <mxGeometry x="640" y="440" width="60" height="45" as="geometry" />
        </mxCell>
        <mxCell id="AnU8_0M6KKUPWGShQXzV-17" value="" style="html=1;verticalLabelPosition=bottom;align=center;labelBackgroundColor=#ffffff;verticalAlign=top;strokeWidth=2;strokeColor=#0080F0;shadow=0;dashed=0;shape=mxgraph.ios7.icons.clock;" parent="1" vertex="1">
          <mxGeometry x="540" y="410" width="30" height="30" as="geometry" />
        </mxCell>
        <mxCell id="AnU8_0M6KKUPWGShQXzV-21" style="edgeStyle=orthogonalEdgeStyle;rounded=0;orthogonalLoop=1;jettySize=auto;html=1;entryX=0;entryY=0.5;entryDx=0;entryDy=0;" parent="1" source="AnU8_0M6KKUPWGShQXzV-18" target="AnU8_0M6KKUPWGShQXzV-20" edge="1">
          <mxGeometry relative="1" as="geometry" />
        </mxCell>
        <mxCell id="AnU8_0M6KKUPWGShQXzV-18" value="CBO Rundeck" style="rounded=1;whiteSpace=wrap;html=1;" parent="1" vertex="1">
          <mxGeometry x="70" y="870" width="120" height="60" as="geometry" />
        </mxCell>
        <mxCell id="AnU8_0M6KKUPWGShQXzV-23" style="edgeStyle=orthogonalEdgeStyle;rounded=0;orthogonalLoop=1;jettySize=auto;html=1;entryX=0;entryY=0.5;entryDx=0;entryDy=0;" parent="1" source="AnU8_0M6KKUPWGShQXzV-20" target="AnU8_0M6KKUPWGShQXzV-22" edge="1">
          <mxGeometry relative="1" as="geometry" />
        </mxCell>
        <mxCell id="AnU8_0M6KKUPWGShQXzV-20" value="Script call WebService CBO Mendix" style="rounded=0;whiteSpace=wrap;html=1;" parent="1" vertex="1">
          <mxGeometry x="265" y="870" width="120" height="60" as="geometry" />
        </mxCell>
        <mxCell id="AnU8_0M6KKUPWGShQXzV-19" value="" style="html=1;verticalLabelPosition=bottom;align=center;labelBackgroundColor=#ffffff;verticalAlign=top;strokeWidth=2;strokeColor=#0080F0;shadow=0;dashed=0;shape=mxgraph.ios7.icons.clock;" parent="1" vertex="1">
          <mxGeometry x="300" y="850" width="30" height="30" as="geometry" />
        </mxCell>
        <mxCell id="AnU8_0M6KKUPWGShQXzV-22" value="WebService Batch on Mendix" style="rounded=0;whiteSpace=wrap;html=1;" parent="1" vertex="1">
          <mxGeometry x="445" y="870" width="120" height="60" as="geometry" />
        </mxCell>
        <mxCell id="AnU8_0M6KKUPWGShQXzV-35" style="edgeStyle=orthogonalEdgeStyle;rounded=0;orthogonalLoop=1;jettySize=auto;html=1;entryX=0;entryY=0.5;entryDx=0;entryDy=0;" parent="1" source="AnU8_0M6KKUPWGShQXzV-26" target="AnU8_0M6KKUPWGShQXzV-28" edge="1">
          <mxGeometry relative="1" as="geometry" />
        </mxCell>
        <mxCell id="AnU8_0M6KKUPWGShQXzV-36" style="edgeStyle=orthogonalEdgeStyle;rounded=0;orthogonalLoop=1;jettySize=auto;html=1;entryX=0;entryY=0.5;entryDx=0;entryDy=0;" parent="1" source="AnU8_0M6KKUPWGShQXzV-26" target="AnU8_0M6KKUPWGShQXzV-29" edge="1">
          <mxGeometry relative="1" as="geometry" />
        </mxCell>
        <mxCell id="AnU8_0M6KKUPWGShQXzV-26" value="WS_Batch (Folder)" style="rounded=0;whiteSpace=wrap;html=1;" parent="1" vertex="1">
          <mxGeometry x="180" y="540" width="120" height="50" as="geometry" />
        </mxCell>
        <mxCell id="AnU8_0M6KKUPWGShQXzV-46" style="edgeStyle=orthogonalEdgeStyle;rounded=0;orthogonalLoop=1;jettySize=auto;html=1;entryX=0;entryY=0;entryDx=0;entryDy=45;entryPerimeter=0;" parent="1" source="AnU8_0M6KKUPWGShQXzV-28" target="AnU8_0M6KKUPWGShQXzV-38" edge="1">
          <mxGeometry relative="1" as="geometry" />
        </mxCell>
        <mxCell id="AnU8_0M6KKUPWGShQXzV-28" value="BOD (Folder)" style="rounded=0;whiteSpace=wrap;html=1;" parent="1" vertex="1">
          <mxGeometry x="260" y="610" width="115" height="60" as="geometry" />
        </mxCell>
        <mxCell id="AnU8_0M6KKUPWGShQXzV-29" value="EOD (Folder)" style="rounded=0;whiteSpace=wrap;html=1;" parent="1" vertex="1">
          <mxGeometry x="260" y="730" width="115" height="60" as="geometry" />
        </mxCell>
        <mxCell id="AnU8_0M6KKUPWGShQXzV-30" value="BOD (Folder)" style="rounded=0;whiteSpace=wrap;html=1;" parent="1" vertex="1">
          <mxGeometry x="260" y="292.5" width="115" height="60" as="geometry" />
        </mxCell>
        <mxCell id="AnU8_0M6KKUPWGShQXzV-34" style="edgeStyle=orthogonalEdgeStyle;rounded=0;orthogonalLoop=1;jettySize=auto;html=1;entryX=0;entryY=0;entryDx=0;entryDy=30;entryPerimeter=0;" parent="1" source="AnU8_0M6KKUPWGShQXzV-31" target="AnU8_0M6KKUPWGShQXzV-9" edge="1">
          <mxGeometry relative="1" as="geometry">
            <mxPoint x="425" y="462.5" as="targetPoint" />
          </mxGeometry>
        </mxCell>
        <mxCell id="AnU8_0M6KKUPWGShQXzV-31" value="EOD (Folder)" style="rounded=0;whiteSpace=wrap;html=1;" parent="1" vertex="1">
          <mxGeometry x="260" y="372.5" width="115" height="60" as="geometry" />
        </mxCell>
        <mxCell id="AnU8_0M6KKUPWGShQXzV-38" value="" style="shape=card;whiteSpace=wrap;html=1;" parent="1" vertex="1">
          <mxGeometry x="460" y="620" width="50" height="60" as="geometry" />
        </mxCell>
        <mxCell id="AnU8_0M6KKUPWGShQXzV-39" value="" style="shape=card;whiteSpace=wrap;html=1;" parent="1" vertex="1">
          <mxGeometry x="470" y="620" width="50" height="60" as="geometry" />
        </mxCell>
        <mxCell id="AnU8_0M6KKUPWGShQXzV-40" value="" style="shape=card;whiteSpace=wrap;html=1;" parent="1" vertex="1">
          <mxGeometry x="480" y="620" width="50" height="60" as="geometry" />
        </mxCell>
        <mxCell id="AnU8_0M6KKUPWGShQXzV-41" value="" style="shape=card;whiteSpace=wrap;html=1;" parent="1" vertex="1">
          <mxGeometry x="490" y="620" width="50" height="60" as="geometry" />
        </mxCell>
        <mxCell id="AnU8_0M6KKUPWGShQXzV-42" style="edgeStyle=orthogonalEdgeStyle;rounded=0;orthogonalLoop=1;jettySize=auto;html=1;entryX=0;entryY=0.5;entryDx=0;entryDy=0;" parent="1" source="AnU8_0M6KKUPWGShQXzV-43" target="AnU8_0M6KKUPWGShQXzV-44" edge="1">
          <mxGeometry relative="1" as="geometry" />
        </mxCell>
        <mxCell id="AnU8_0M6KKUPWGShQXzV-43" value="WebService" style="shape=card;whiteSpace=wrap;html=1;" parent="1" vertex="1">
          <mxGeometry x="500" y="620" width="90" height="60" as="geometry" />
        </mxCell>
        <mxCell id="AnU8_0M6KKUPWGShQXzV-44" value="Micro flow" style="ellipse;whiteSpace=wrap;html=1;" parent="1" vertex="1">
          <mxGeometry x="640" y="627.5" width="60" height="45" as="geometry" />
        </mxCell>
        <mxCell id="mEGexa-nTJ1rq306rcF5-1" value="1.HRIS&lt;br&gt;2.Gen batch condition" style="text;html=1;align=left;verticalAlign=middle;resizable=0;points=[];autosize=1;strokeColor=none;" vertex="1" parent="1">
          <mxGeometry x="680" y="720" width="130" height="30" as="geometry" />
        </mxCell>
        <mxCell id="mEGexa-nTJ1rq306rcF5-2" value="1.Purge doc&lt;br&gt;2.Purge ws log&lt;br&gt;3.Reset condition stand by&amp;nbsp;" style="text;html=1;align=left;verticalAlign=middle;resizable=0;points=[];autosize=1;strokeColor=none;" vertex="1" parent="1">
          <mxGeometry x="520" y="215" width="160" height="50" as="geometry" />
        </mxCell>
      </root>
    </mxGraphModel>
  </diagram>
</mxfile>
